M48
;Layer_Color=9474304
;FILE_FORMAT=4:3
METRIC,LZ
;TYPE=PLATED
T1F00S00C0.500
T2F00S00C0.635
T3F00S00C0.700
T4F00S00C0.762
T5F00S00C0.889
T6F00S00C0.900
T7F00S00C0.950
T8F00S00C1.000
T9F00S00C1.016
T10F00S00C1.100
T11F00S00C1.270
T12F00S00C1.524
T13F00S00C1.600
T14F00S00C4.500
%
T01
X0005Y00115
X00095Y0014
X0011Y00125
X00135Y0007
X00175Y00095
X00185Y00035
X00565Y0008
X0062Y0009
Y00055
X0064Y00145
X0059Y0015
X0067598Y0027173
X0066616Y0029599
X0067Y0052
X0064Y0053
X0061028Y00525
X0053Y00345
X00525Y0033
X0047333Y0037003
X00465Y00385
X00435Y00375
X00375
X0037Y0036
X00375Y00345
X003315Y003295
X0033762Y0031
X00345Y00285
X003933Y003
X00305Y0031
X00295Y00365
X0031Y00375
X003Y00415
X00285Y00405
X00245Y00355
X00235Y003
X0018Y00375
X0016Y0038
X0017Y00395
X0015Y0044
X00175Y00485
X0041Y0044
X00385Y00395
X0041437Y0021937
X00335Y00195
X00155Y00165
X0012Y00215
X0007Y0022
X0004Y00185
X0009Y0067
X0021Y0064
X0019Y0059
X0019217Y0055798
X0032Y00715
X004Y0072
X0064Y00665
X0063Y00615
X00625Y0057
X0062Y0055
X0067Y00595
T02
X00265Y00045
Y00065
X00205Y0032
X001796
X00495Y00175
Y00155
X005173Y00605
X005427
T03
X0040025Y0012255
X0034975Y0014745
X00693Y00609
Y00651
T04
X00455Y0066
Y00705
X00582
Y0066
T05
X006873Y003038
X007127
Y003292
Y003546
Y0038
Y004054
Y004308
Y004562
X006873
Y004308
Y004054
Y0038
Y003546
Y003292
T06
X00575Y00195
Y002204
Y002458
X006004
Y002204
Y00195
X0068Y00225
X007054
X0063Y003342
Y003596
Y00385
Y004104
X003981Y006119
Y006373
Y006627
Y006881
X003219
Y006627
Y006373
Y006119
T07
X00165Y002138
X00191
X00139
T08
X0049Y000496
Y00075
Y001004
X005Y0022
X0009Y00285
Y0031
X0008Y00375
Y004
T09
X006635Y00115
X007165Y00091
Y00139
T10
X00535Y0053
T11
X0006278Y0046007
X0010722
Y0052993
X0006278
T12
X0035Y00065
X004
T13
X005663Y004987
X005037
Y005613
X005663
T14
X000391Y000391
X007109
X000391Y007109
X007109
M30
